<mxfile host="65bd71144e">
    <diagram id="vCxmcyvYUJ1T7m7YYW19" name="Page-1">
        <mxGraphModel dx="1013" dy="674" grid="1" gridSize="10" guides="1" tooltips="1" connect="1" arrows="1" fold="1" page="1" pageScale="1" pageWidth="850" pageHeight="1100" math="0" shadow="0">
            <root>
                <mxCell id="0"/>
                <mxCell id="1" parent="0"/>
                <mxCell id="2" value="Selectable Map.&amp;nbsp;&lt;br&gt;&lt;br&gt;Try Seaborn first, but might need&amp;nbsp;&lt;br&gt;to use some other weird libraries&lt;br&gt;&lt;br&gt;Have the color display histogram per neighborhood. &lt;br&gt;based on whats selected in the lower right option box.&lt;br&gt;&lt;br&gt;Also, put a vertical bar to the left showing the range of values.&amp;nbsp; &lt;br&gt;Much like the workout summmary (global dict for rng units)" style="rounded=0;whiteSpace=wrap;html=1;" parent="1" vertex="1">
                    <mxGeometry x="270" y="70" width="430" height="300" as="geometry"/>
                </mxCell>
                <mxCell id="3" value="Time Slider.&amp;nbsp;&amp;nbsp;" style="rounded=0;whiteSpace=wrap;html=1;" parent="1" vertex="1">
                    <mxGeometry x="190" y="560" width="510" height="60" as="geometry"/>
                </mxCell>
                <mxCell id="4" value="" style="rounded=0;whiteSpace=wrap;html=1;" parent="1" vertex="1">
                    <mxGeometry x="730" y="360" width="180" height="180" as="geometry"/>
                </mxCell>
                <mxCell id="6" value="Select and &lt;br&gt;overlay neighborhoods&lt;br&gt;&lt;br&gt;Option buttons?&amp;nbsp; Probably&lt;br&gt;&lt;br&gt;Thats the comparison you want&lt;br&gt;Add those to the trend lines individually as a group over time and you can begin to see where more or less affordable to live" style="rounded=0;whiteSpace=wrap;html=1;" parent="1" vertex="1">
                    <mxGeometry x="730" y="71" width="180" height="280" as="geometry"/>
                </mxCell>
                <mxCell id="8" value="&lt;ul style=&quot;font-size: 16px;&quot;&gt;&lt;li&gt;&lt;span style=&quot;background-color: initial;&quot;&gt;Number of Listings&lt;/span&gt;&lt;br&gt;&lt;/li&gt;&lt;li&gt;&lt;span style=&quot;background-color: initial;&quot;&gt;Price&lt;/span&gt;&lt;/li&gt;&lt;li&gt;&lt;font style=&quot;font-size: 16px;&quot;&gt;Price Regression&lt;/font&gt;&lt;/li&gt;&lt;li&gt;&lt;font style=&quot;font-size: 16px;&quot;&gt;Agg Crime score&lt;/font&gt;&lt;/li&gt;&lt;li&gt;&lt;font style=&quot;font-size: 16px;&quot;&gt;Avg sqft&lt;/font&gt;&lt;/li&gt;&lt;/ul&gt;" style="text;strokeColor=none;fillColor=none;html=1;whiteSpace=wrap;verticalAlign=middle;overflow=hidden;" parent="1" vertex="1">
                    <mxGeometry x="730" y="360" width="170" height="180" as="geometry"/>
                </mxCell>
                <mxCell id="9" value="Trend over selected time below time" style="rounded=0;whiteSpace=wrap;html=1;" parent="1" vertex="1">
                    <mxGeometry x="190" y="390" width="510" height="150" as="geometry"/>
                </mxCell>
                <mxCell id="10" value="" style="rounded=0;whiteSpace=wrap;html=1;" vertex="1" parent="1">
                    <mxGeometry x="190" y="70" width="70" height="300" as="geometry"/>
                </mxCell>
                <mxCell id="11" value="Cycle Time Window&lt;br&gt;Days, weeks, months" style="rounded=0;whiteSpace=wrap;html=1;" vertex="1" parent="1">
                    <mxGeometry x="730" y="560" width="180" height="60" as="geometry"/>
                </mxCell>
            </root>
        </mxGraphModel>
    </diagram>
</mxfile>